<?xml version='1.0' encoding='UTF-8'?>
<svg x="0px" y="0px" viewBox="0 0 32 32" version="1.1" xmlns="http://www.w3.org/2000/svg" xmlns:xlink="http://www.w3.org/1999/xlink" xml:space="preserve" id="Layer_1" style="enable-background:new 0 0 32 32">
  <style type="text/css">
	.Blue{fill:#1177D7;}
	.Green{fill:#039C23;}
	.Yellow{fill:#FFB115;}
	.Black{fill:#727272;}
	.White{fill:#FFFFFF;}
	.Red{fill:#D11C1C;}
	.st0{opacity:0.75;}
</style>
  <g id="Report">
    <path d="M27,4h-3v22H8V4H5C4.4,4,4,4.4,4,5v24c0,0.6,0.4,1,1,1h22c0.6,0,1-0.4,1-1V5C28,4.4,27.6,4,27,4z" class="Yellow" />
    <path d="M20,4V3c0-0.6-0.4-1-1-1h-6c-0.6,0-1,0.4-1,1v1h-2v4h3h6h3V4H20z" class="Black" />
    <g class="st0">
      <rect x="10" y="20" width="12" height="2" rx="0" ry="0" class="Black" />
      <rect x="10" y="12" width="12" height="2" rx="0" ry="0" class="Black" />
      <rect x="10" y="16" width="12" height="2" rx="0" ry="0" class="Black" />
    </g>
  </g>
</svg>