<?xml version='1.0' encoding='UTF-8'?>
<svg x="0px" y="0px" viewBox="0 0 16 16" version="1.1" xmlns="http://www.w3.org/2000/svg" xmlns:xlink="http://www.w3.org/1999/xlink" xml:space="preserve" id="Layer_1" style="enable-background:new 0 0 16 16">
  <style type="text/css">
	.Green{fill:#119B49;}
	.Blue{fill:#3475BA;}
	.Black{fill:#737373;}
</style>
  <path d="M8,5C5.8,5,4,6.8,4,9s1.8,4,4,4s4-1.8,4-4S10.2,5,8,5z M8,12c-1.7,0-3-1.4-3-3s1.3-3,3-3s3,1.3,3,3  S9.7,12,8,12z" class="Blue" />
  <polygon points="8,9 8,7 7,7 7,10 10,10 10,9 " class="Black" />
  <rect x="0" y="1" width="16" height="3" rx="0" ry="0" class="Green" />
  <path d="M0,4v11h16V4H0z M15,14H1V4h14V14z" class="Black" />
</svg>